<svg width="24" height="24" viewBox="0 0 24 24" fill="none" xmlns="http://www.w3.org/2000/svg">
<path d="M11.99 2C6.47 2 2 6.48 2 12C2 17.52 6.47 22 11.99 22C17.52 22 22 17.52 22 12C22 6.48 17.52 2 11.99 2ZM12 20C7.58 20 4 16.42 4 12C4 7.58 7.58 4 12 4C16.42 4 20 7.58 20 12C20 16.42 16.42 20 12 20Z" fill="#FF5722"/>
<path d="M11.993 4.92814C8.129 4.92814 5 8.06414 5 11.9281C5 15.7921 8.129 18.9281 11.993 18.9281C15.864 18.9281 19 15.7921 19 11.9281C19 8.06414 15.864 4.92814 11.993 4.92814ZM12 18C8.906 18 6 15.0221 6 11.9281C6 8.83414 8.906 6 12 6C15.094 6 18 8.906 18 12C18 15.094 15.094 18 12 18Z" fill="#FF5722"/>
</svg>
